<svg version="1.1" id="图层_1" xmlns="http://www.w3.org/2000/svg" xmlns:xlink="http://www.w3.org/1999/xlink" x="0" y="0" viewBox="0 0 751.7 225.4" xml:space="preserve"><style>.st1{fill:#394144}</style><defs><path id="SVGID_1_" d="M1-.4h750.7v225.7H1z"/></defs><clipPath id="SVGID_2_"><use xlink:href="#SVGID_1_" overflow="visible"/></clipPath><path d="M55.8 122.1c-5.6.6-16.2 3.1-22 8.2-17.4 15.1-7 42.7 28.2 42.7 20.4 0 40.8-13 56.9-33.9-22.8-11.1-42.2-19.1-63.1-17zM187 141.2c32.5 10.9 39.9 11.4 39.9 11.4V35.8c0-9.6-3.8-18.8-10.6-25.5-6.8-6.8-16-10.6-25.5-10.6H37.1c-9.6 0-18.8 3.8-25.5 10.6C4.8 17 1 26.2 1 35.8v153.1c0 9.6 3.8 18.8 10.6 25.5 6.8 6.8 16 10.6 25.5 10.6h153.6c9.6 0 18.8-3.8 25.5-10.6 6.8-6.8 10.6-16 10.6-25.5v-1.5S168 163 138.4 148.8C118.5 173.2 92.8 188 66.1 188c-45.1 0-60.4-39.3-39-65.2 4.7-5.6 12.6-11 24.9-14.1 19.2-4.7 49.8 2.9 78.5 12.4 5.3-9.9 9.6-20.2 12.7-31H54.8v-8.9h45.5V65.1h-55v-8.8h55.2V33.4c0-1 .4-2 1.1-2.8.7-.7 1.7-1.1 2.8-1.1h22.3v26.7h54.5v8.9h-54.5v16.1h44.5c-4 16.6-10.4 32.6-18.9 47.5 13.5 4.9 25.6 9.6 34.7 12.5zm0 0" clip-path="url(#SVGID_2_)" fill="#25abee"/><path class="st1" d="M649.1 27.6h73.3v14.5h26.2V24.9c0-3.8-3-6.9-6.8-7.1h-42.4V4.3H672v13.5h-49.1v24.3h26.2V27.6zM471.9 5.5L445.1 69h20.6v75.5h22.5V44.3H480l17-38.8h-25.1zm271.4 107.7c-.5-1.8-2.2-3-4-3.1h-21.8l6.3 21.3h-25.6V90.2h50.3v-9.8h-50.3V60.9h50.3v-9.8H622.9v9.8h50.3v19.4h-50.3v9.8h50.3v41.3h-50.3v9.8h128.6l-.1-.3h.1l-8.2-27.7zM529.4 57.5c-.9-1.8-2.7-2.9-4.6-3h-19.5l15.2 47.8h23l-14.1-44.8zm0 0"/><path class="st1" d="M578.7 6.7h-23.4v24.4h-57.6V41h57.6v87.9c-.2 2-1.8 3.6-3.8 3.7h-11.9v10.2H570c4.9-.3 8.7-4.2 8.7-9.1V41h9.5v-9.8h-9.5V6.7zM417.4 135.2c-18-6.4-35.3-14.6-51.5-24.6C385.2 96.3 402 77 408.7 51.1h-44.9v-16h52.1v-10h-52.1V4.7h-23.2c-1.2 0-2.4.5-3.3 1.4-.9.9-1.3 2.1-1.3 3.4v15.6h-51.7v10H336v16.1h-43.7v10h87s-4.8 18.8-28.7 39c-21.4-16.1-28.5-29-28.5-29h-23.4c9.4 16.4 22.8 29.4 37.3 39.9-13.3 8.6-30.5 16.9-52.7 23.6v12c23.7-5.1 46.5-13.9 67.5-26 20.8 11.9 43.2 20.7 66.6 26v-11.5zM309.3 165l-21.4 58.2h10.9l4-11.7h21.4l3.9 11.7H339L317.6 165h-8.3zm-3.9 39.2l8.4-24.1 8 24.1h-16.4zm91.9-39.2h-10.5v58.2H422v-7.9h-24.8V165zm76.6 0h10.5v58.2h-10.5V165zm88.9 0h-22.6v58.2h10.5v-22.4h12.2c11.3 0 19.2-7.4 19.2-17.9-.1-10.5-8-17.9-19.3-17.9zm-.6 27.9h-11.6V173h11.6c5.8 0 9.3 5.1 9.3 10 0 4.8-3.3 9.9-9.3 9.9zm79.7-27.9l-21.4 58.2h10.9l4-11.7h21.4l3.9 11.7h10.9L650.1 165h-8.2zm-4 39.2l8.4-24.1 8 24.1h-16.4zM730 165l-11.4 24.8-11.7-24.8h-11.3l17.6 34.3v23.9h10.4v-23.9l.1-.1 17.6-34.2H730zm0 0"/></svg>