<svg version="1.1" id="图层_1" xmlns="http://www.w3.org/2000/svg" xmlns:xlink="http://www.w3.org/1999/xlink" x="0" y="0" viewBox="0 0 870 235.7" xml:space="preserve"><style>.st1{fill:#004889}.st2{fill:#008089}</style><defs><path id="SVGID_1_" d="M1-.4h888.1v236.1H1z"/></defs><clipPath id="SVGID_2_"><use xlink:href="#SVGID_1_" overflow="visible"/></clipPath><path d="M87.7 211.5l27.7-118.8c-.2-.1-.5-.1-.8-.1-1.5.1-2.9.7-4.1 1.4-.1 2.1-1.5 8.7-2.1 11.8-1.4 6.4-1.5 7.1-2.1 10.3l-.4.4c-4.9 0-6.5 0-12.1.2l-.3-.5c.9-3.8 1.9-7.6 2.8-11.5 2.8-10.9 4.5-23.4 4.7-36.3l-.7 16.5c5.5-.8 6.8-.9 12.7-2.1l.5.6-.9 3.3c1-.6 1.9-1.2 3-1.7 1.6-.8 3.5-1.3 5.4-1.5l10.5-59.6C134.6 10.6 147.7 0 160.8 0H74.6C61.5 0 48.4 10.6 45.3 23.8L1.6 211.5c-3 13.1 5.1 23.8 18.2 23.8h86.1c-13.2 0-21.3-10.7-18.2-23.8zm-8.6-98.7c-4.6 2.5-10.1 4-15.9 4h-1.1c-5.1 0-14.1-.8-17.3-6.4-.9-1.7-1.5-3.8-1.5-5.9v-.4l1.1-8.5.6-2.6 6.9-30.9s.4-1.7.4-2c.1.2 2.5.3 15.8.2l-.1.4c-1.2 3.6-8.1 31-8.1 31l-1.3 8.2v1.4c.4 4 3 6.2 7.2 6.2h.2c2.6 0 4.9-.9 6.7-2.4 3.4-2.8 4.5-7.1 5.9-13.2 0 0 6.5-30.1 6.9-31.7.9.2 3.8.3 13.4.2-.1.2-.1.4-.1.6-1.2 3.6-8.2 32-8.2 32l-.8 3.1c-1.5 5.6-3.4 12.3-10.7 16.7zm0 0" clip-path="url(#SVGID_2_)" fill="#e03333"/><path class="st1" d="M191.4 211.5l7.3-31.1h-3.1c-2.6 0-4.4 0-5.7-.2h-.5c-1 0-2-.3-2.9-.7-.7-.6-1.9-1.6-1.8-2.4.4-2.8 1.2-5.3 2.3-7.6l13.3-45.1h10.5l-1.6 5.3s.7-.5 1.6-1.2l3-12c-1.9 0-3.8.1-6.8.2l-.2-.4c.5-2.1 1-4.2 1.6-6.3l.7-2.9c1-4.5 2-9.7 2.1-11.3.1-1 .4-3.3-2.3-3.3-1.5.1-2.9.6-4.1 1.4-.2 2.1-1.5 8.7-2.2 11.8-1.3 6.4-1.4 7.1-2 10.3l-.4.4c-4.9 0-6.5 0-12.1.2l-.3-.5c.9-3.8 1.8-7.6 2.7-11.5 2.7-10.8 4.4-23.2 4.7-35.9l-.7 16.1c5.5-.8 6.8-.9 12.7-2.1l.5.6-.9 3.3c1-.6 2-1.2 3-1.7 2.3-1.1 5-1.8 7.8-1.8-.2 0-.1 0 0 0 1.4 0 2.7.3 3.9.9l14-60.3c2.8-13.1 15.9-23.7 29-23.7H160.7c-13.1 0-26.2 10.7-29.3 23.8l-14.1 60.4c1.8-.6 3.9-1 6.1-1 2.3 0 5.1.7 6.3 3.7 1.1 2.7.4 6-1.1 12.4l-.8 3.3c-1.6 7.2-1.8 8.5-2.6 13.5l-.6.4c-4.7 0-6.4 0-11.9.2l-.2-.4 1.5-6.3.7-2.9c1-4.5 2-9.7 2.1-11.3.1-.9.3-2.8-1.6-3.2L87.7 211.5c-3.1 13.1 5 23.8 18.2 23.8h103.7c-13.2 0-21.3-10.7-18.2-23.8zm3.5-83.1l-2.2 7.5h-16.8l-1.8 1.6c-.8.8-1.1.4-2.1 1-1.6.9-3.6 1.4-5.6 1.4h-5.3l2.2-7.2h2.1c.8 0 1.6-.2 2.2-.5 1.1-.9 1.8-2.1 2.2-3.5l2.7-4.4h12.2l-2.1 4.1h12.3zm-44-39.5c-.5 1.8-2 7.6-2.4 9.4-.5 2.1-1.1 4.2-1.6 6.3-1.1 4.5-1.5 6.2-1.7 7.4-.3 1.2-.3 1.8-.7 4.1l-.3.2-.3.2h-6.5c-1.7 0-3.5.1-6.2.2l-.2-.2-.2-.2c1-3.8 2.5-7.2 4.5-10.2-2 3.1-1.3-.1-1.1-3.4.2 1.3.7-1.1 1.1-3.2.3-2.1 1.6-7.6 1.9-9.4v-.3c0-1.7 1-3.2 2.4-3.9 3-2.1 7.4-2.5 9.9-1 1 .5 1.6 1.5 1.6 2.6.2.5 0 1-.2 1.4zm2.4 11.1c1-5.5 3.8-10.3 7.8-13.7 2.1-1.6 6.8-3.5 11.9-3.5h.8c4.5 0 8.8 1 11.3 4.2 1.6 2.1 2.9 5.5 1.2 12.7-1.1 5.3-3.7 9.8-7.2 13.3-1.6 1.4-6.6 3.7-12.1 3.7h-1.3c-2.6 0-5.1-.4-7.4-1.3-7.3-2.9-6.1-10.9-5-15.4zm25.6 80.3h-13.8c-1.2 0-2.3-.2-3.4-.5-.8-.1-1.6-.8-2-1.7-.5-.4-.8-1.2-.8-2 0-.3.1-.7.2-1L163 162h-6.8l2.2-7.5h6.8l1.8-6.1h-6.8l2.2-7.1h29.9l-2.2 7.2h-12l-1.9 6.1h12.2l-2.2 7.4H174l-2.9 9.7c-.4 1.1 2.9 1.2 4.1 1.2l6.1-.8-2.4 8.2zm0 0"/><path class="st1" d="M208.6 132.4l-2.5 8.3c1.7-1.4 3.8-2.5 6-3.1l-2.4-5.2h-1.1zm-41-23.2c1.6-.2 2.9-1.1 3.6-2.4 1.7-3 2.8-6.7 3.1-10.6.9-2.6.7-6-2.2-6-3.7 0-5.2 4.6-6.5 10.1-.5 1.7-.8 3.7-.8 5.7.1 3.2 2.4 3.2 2.8 3.2zm30.1 60c-.4 1.6-.6 2.2-.4 2.6.3.5.9.8 1.5.8h.1l1.6-.2 4.3-18.4h-2.5l-4.6 15.2zm7.5-25.4l-1.1 3.5h2.2l.8-3.5h-1.9zm0 0"/><path class="st2" d="M285.7 109.3c1.9-.1 3.6-.9 4.8-2.3.9-1.3 1.6-3 1.8-4.8-.1.5.3-1.1.7-2.8.3-1.1.5-2.1.7-3 .3-3.8-1-5.9-3.4-5.9-3.8 0-5.2 4.6-6.5 10-.5 1.8-.8 3.8-.8 6 .1 2.8 2.4 2.8 2.7 2.8zm-64.5 37.9l1.1-3.4h-15.2l-.8 3.5H219c.3 0 .7-.1 1.1-.1h1.1zm0 0"/><path class="st2" d="M358.3 0h-93.9c-13.2 0-26.3 10.7-29.3 23.8L221 84c1.3.7 2.3 1.9 2.7 3.4.9 2.1.2 5.4-1.3 11.9l-.8 3.3c-1.6 7.2-1.8 8.5-2.6 13.5l-.6.4h-5.1l-2.8 12c2.7-2 5.9-3.4 9.3-4.1-1.4.5 3.2-.2 7.8-.3l11.2.4-5.7 19.2c-1 3.6-2.7 6.7-5 9.2 1.3-1.4-.1-.3-1.8.3-.3.4-2 .9-3.8 1-.2 0-1.9 0-4.3.1h-13.8l-4.3 18.3 5.6-.5-2.4 8.4h-5l-7.3 31.2c-3.1 13.1 5.1 23.8 18.2 23.8H303c13.1 0 26.3-10.7 29.3-23.8L376 24c3.6-13.3-4.6-24-17.7-24zm-67.1 83.1c2.1.8 3.7 2.3 4.6 4.2-.4-1.2-.3-1.7-.3-2.1l.4-.4c5.7-.8 7.2-1 13.1-2.1l.2.5c-1.1 4.5-2.1 8.9-3.1 13.4-2.2 9.4-3 14.1-3.8 19l-.5.4c-5.7 0-7.3 0-12.6.2l-.3-.4c.2-.7.3-1.3.5-2-1.8 1.7-4.2 2.8-6.8 2.9h-.2c-2.1 0-4.1-.4-5.9-1.2-7.2-2.8-6.1-10.8-5-15.2 1-5.5 3.8-10.2 7.7-13.6 3.6-3.3 9.5-4.6 12-3.6zm-64.9 33.5l9.2-37.7 3.6-17 .4-2.1c1.7.2 5.8.3 16 .1h3.9c8 0 14.9.1 18.4 5 1.2 1.7 1.9 3.8 1.9 6v.5c0 1.9-.3 3.7-.7 5.4-1.3 6.4-5.3 11.9-10.8 15.4-5.1 3.9-13.9 3.9-21.5 3.9h-.8c-.7.5-1.3 1.1-1.6 1.8.4-.5-1.4 6.9-1.4 6.9s-2.1 10.1-2.4 11.7c-1.6-.1-5.2-.1-14.1 0l-.1.1zm3.4 43.3c-.3 1.6-1.1 2.9-2.3 3.8-.9.9-2.7 1.7-4.7 1.7h-.5l-5.7.2v5.2c0 1.5.3 1.3.5 1.6.3.3.6.5 1 .5l1.6-.1 5.5-.3-2.3 7.6h-6.4c-4.5 0-7.8-.1-8.9-1-1.1-.9-1.2-1.6-1.2-3l.4-20.4h10.1l-.1 4.2h2.7c.5 0 1-.1 1.5-.3.4-.3.7-.8.7-1.3l.9-3h8l-.8 4.6zm35.5 20.3h-10.9l.7-2.4h-22.1l2.2-7.2h2.2l11.6-38.4 2.3-7.8h11.1l-1.2 3.9c2.7-1.9 5.9-3.1 9.4-3.6-1.3.2 10.2-.1 14-.2h11.9l.1 4.4c0 .7.6 1.1 1.9 1.1h2.4l-2.2 7.3h-6.4c-5.5.4-7.6-2-7.5-4.7l-.1-4.3-1.2 3.9h-3.8l-11.4 37.9h3.1l-2.4 7.8h-3.1l-.6 2.3zm49.1-33.7h-11.9l-1.9 5.9h11.9l-2 6.5h-12.9l-2.3 2.7h5.2l1.3 8.2c0 .7.2 1.3.5 1.8.6.2 1.4.3 2.3.3h1.9l-2.4 8h-4c-.6 0-1.6 0-2.8-.1-1.4-.3-2.6-.9-3.6-1.8-.4 0-1.2-1.1-1.4-2.4l-1.2-8-5.9 8c-1.8 2.7-4.9 4.5-8.3 4.5h-8.5l2.1-7.1h3.1c.9 0 1.7-.3 2.4-.7.8-.3 1.4-.9 1.8-1.7l8.3-11.7h-11.3l1.9-6.5h12.9l1.8-5.9h-12.7l2.2-7.3h35.5l-2 7.3zm7.5-22.5l-.5.6h.1l-4.6 7.8c-1.6 2.8-4.5 4.7-7.9 4.7h-.5l-7.3-.1 2.1-7.1h1.7c.5 0 1-.1 1.4-.3.5-.2.8-.6 1-1.1l2.4-3.8c3.6-5.5 4.5-7.8 8.3-14.1-.7-7-1-9.3-1.6-13.9-.3-2.7-.8-5.6-1.1-8.3-.5-5.3-1.4-10.2-2.8-14.8l1.6 6.3v-.6l.5-.4c5.6-.7 5.8-.9 11.9-2.1l.5.5.8 15.7v.9c3.3-7.2 3.1-5.3 7.1-14.5v-.1l.4-.4c5.4-.7 6.4-.9 12.2-2.1l.5.5c.2-.1-23 40.1-26.2 46.7zm0 0"/><path class="st2" d="M224.7 136.4l1.2-4.1h-16.1l-1.6 6.9c2.6-1.6 5.8-2.7 9.2-2.9-.9.1 7.3.1 7.3.1zM258.2 86c3.5-1.8 5.9-5.2 6.5-9.2.8-3.4-.5-6.6-3.7-7.8l-8.3-.6-1.6-.2v.7l-.1.9-3.9 16.9-.2.8h3.5c2.7 0 5.3-.5 7.7-1.5h.1zm-9.5 84h8.9l2.6-8.5h-9l-2.5 8.5zm11.5-37.9l-2.9 9.7c4.7-2.2 10.2-3.7 16-4.2-9 1.8-6.9 1.5-4.7 1.5l.5-7h-8.9zm-7.4 24.6c4.6-2.4 10-4.1 15.8-4.7-8.8 2.1-6 1.7-6 1.7l2.2-7h-8.9l-3.1 10zm0 0"/><path d="M412 56.7h38.5l1.3-7h13.1l-1.3 7h39l-12.3 69.2c-.4 2.4-1.3 4.5-2.6 6.3-.3.6-2.2 2.4-4.4 3.4.6-.1-1.2.5-3.2.5h-30.6L448 145h-13.1l1.5-8.8h-38.5L412 56.7zm1.5 66.7h25.1l9.6-54.1h-25.1l-9.6 54.1zm38.3 0h22.4c1 0 2-.2 2.8-.7.6-.7 1-1.7 1-2.8l9-50.7h-25.6l-9.6 54.1v.1zm93.9-32.5h18.6l2-11.3h-18.6l1.9-10.5H603l-1.9 10.5h-21.6l-2 11.3h21.2l-1.9 10.4h-21.2l-2.7 15.1h7.5l4.4-6.6h8.2l-.8 6.6h3.8l-1.9 10.5h-54.8l1.9-10.4h18.6l2.7-15.1h-18.7l1.9-10.5zM533.8 51h91.4l-14.4 81.1c-.5 3.1-1.5 5.8-3 8.3.2-.4-1.7 1.7-4 3.1-.1.4-3.4.6-9.9.6h-76.6L533.8 51zm-.9 82.2H594c.9 0 1.7-.3 2.3-.9.6-.9 1-2.1 1.1-3.3l11.9-67.2h-63.8l-12.6 71.4zm116.2-54.7H687L685 90h-16.2l-2.1 11.6h16.5l-2 11.1h-16.5l-2.9 16.3c-.3 1.9-.3 3 0 3.4.3.4 1.2.6 2.7.6h9.7l-2 11.2h-16.6c-1.6 0-3.2-.3-4.6-.8-1.3-.4-2.6-1.5-3.3-3-.2-.6-.4-1.9-.4-3.1 0-.9.1-1.9.4-2.7l3.8-21.7h-9.4l2-11.3h9.4l2.1-11.6H647l2.1-11.5zm23.2-21.3h18.5l-2 11h-21.3l-1.8 2.4c-1.5 2.1-3.6 3.7-5.9 4.6 1.6-.7-.7-.3-3.9-.3h-6.8l1.9-10.8h2.6c1.1 0 2.1-.3 2.9-.8 1.2-1.5 2-3.3 2.3-5.4l3.3-8.3H675l-2.7 7.6zm24.2-6.3h49.7l-5.6 31.5c-.8 5.8-2.4 11-4.8 15.8 1-2.8-.9-1-3.2.1.1.3-1.9 1.2-4.1 1.3-.7 0-2.7.1-4.7.1h-23.1l-4.8 27.3c-.5 2.5-.5 4.1-.1 4.7.4.6 1 .9 1.7.9h6.5l-2 11.2h-7.7c-3.2 0-5.7-.1-7.2-.3-1.7-.1-3.1-.9-4.2-2.1-.8-.7-1.4-2.1-1.4-3.6.2-3.3.7-6.4 1.4-9.4l13.6-77.5zm31.7 30.7h-24.4l-1.4 7.6h21.7c.9 0 1.6-.4 2.2-1 .6-.7 1.1-1.5 1.2-2.5l.7-4.1zm-22.5-10.7h24.4l1.6-9h-24.5l-1.6 9h.1zm33.2 32.4l-1.2 6.7c-.7 4.2-2 8-3.7 11.4 1.5-3.3-1.1-2.4-5.9-2.4h-6.7l.3 9v.8c0 1.3.2 2.5.6 3.7.2.3.6.6 1.1.7l2.2-.1h6.9l-2 11.2h-8c-5.7 0-9.3-.6-10.7-1.9-1.4-1.3-2.2-3.2-2.2-5.2v-.2l-1.3-33.8h12.9l.2 6.9h5c.7 0 1.3-.2 1.8-.6.4-.5.7-1.2.8-1.9l.8-4.2h9.1zm75.6-41.1l-11.8 66.3h4.2l-2 11.4h-4.2l-.9 5.3h-13.2l.9-5.3h-28.2l2-11.4h3.3l11.8-66.3h-3.3l2-11.3h45.6l-2 11.3h-4.2zm-24.8 0l-2.5 14.3h11.7l2.5-14.3h-11.7zm-11.8 66.3h11.7l2.8-15.5h-11.7l-2.8 15.5zm4.7-26.6h11.7l2.6-14.5h-11.7l-2.6 14.5zm39.9-51.8h13.1l.1 7c0 1.3.9 1.9 2.7 1.9h3.2l-2 11h-8.5c-5.7 0-8.6-2.3-8.6-6.9v-13zm5 59.5H812l2-11.2h17l2.2-12.6h-17l2-11.2h46l-2 11.2h-15.7l-2.2 12.6H860l-2.1 11.2H841l-3.2 6.9h8.1l2.5 13.9c.1 1.3.6 2.4 1.2 3.4.2 0 .8.3 1.6.3h2.5l-2 11h-5.3c-.8 0-2.1-.1-3.7-.2-1.7-.1-3.2-.7-4.5-1.5-.6-.4-1.4-2-1.8-4.5l-2.7-14.3-7.4 14.1c-2.3 4.3-6.2 6.4-11.8 6.4h-8.7l2-11h4.2c1 0 1.9-.3 2.7-.8 1.3-1 2.2-2.5 2.6-4.1l10.2-19.6zm41.6-59.7l-4.7 13c-1.7 4.6-5.4 7-11 7h-8.5l2-11h3.5c.7 0 1.4-.2 2-.4.6-.4 1-1 1.2-1.7l2.5-6.8 13-.1zM418.6 184.7l5.2 1.5c-2.2 5.8-6.2 10.4-11.3 13.4.1.2-3.9 1.7-8.2 1.7h-1.1c-3.5 0-6.7-1.1-9.4-3.1-2.7-2.4-4.5-5.8-4.9-9.6-.2-.8-.4-2.9-.4-5s.2-4.2.6-6.2c.9-5.6 3.2-10.7 6.6-14.9.8-1.6 5-5 10-6.7-.6-.1 3-1.1 6.8-1.1h.7c3.5 0 6.6 1.3 9 3.5 2.5 2.6 4.1 6.1 4.1 9.9l-5.6 1.1c-.1-2.8-1.3-5.4-3.1-7.3-1.3-1.2-3.4-2-5.7-2h-.8c-3 0-5.8.9-8.1 2.5-3.1 2.2-5.5 5.4-6.5 9.2-.9 1.2-2.1 5.5-2.3 10.1.1-2.3-.1-.3-.1 1.7 0 1.5.1 3 .3 4.4.3 2.6 1.8 5 4 6.5 1.4 1 3.6 1.8 6 1.8h.2c3.1 0 5.9-1.1 8.2-2.9 3.3-2.8 5.6-6.7 6.4-11.1l-.6 2.6zm11.8 15.8l8-45h5l-2.9 16.2c2.4-2.7 5.9-4.5 9.8-4.5h.1c1.9 0 3.7.6 5.3 1.5 1.5 1 2.6 2.5 2.8 4.4.1.5.2 1.5.2 2.6 0 1.5-.2 3-.5 4.4l-3.6 20.6h-5l3.7-20.7c.5-2.8.3-4.8-.6-6-.9-1.2-2.3-1.9-3.9-1.9h-.5c-1.7 0-3.2.5-4.5 1.3-1.8 1-3.2 2.7-3.9 4.7-.6 1-1.3 3.7-1.5 6.6l-3 16-5-.2zm41.9-38.7l1.1-6.4h5l-1.1 6.4h-5zm-6.9 38.7l5.8-32.6h5l-5.8 32.6h-5zm15.9 0l5.8-32.6h4.5l-.8 4.6c2.3-3.3 6.1-5.4 10.4-5.4h.2c1.7 0 3.2.4 4.6 1.1 1.4.7 2.6 1.9 3.1 3.4.3.5.6 1.9.6 3.3v.1c-.1 2.5-.5 4.9-1.1 7.2l-3.1 18.2h-5l3.5-19.9c.2-1.1.4-2.3.4-3.5 0-.5 0-1.1-.1-1.6-.2-1.1-.9-2.1-1.8-2.7-.7-.5-1.8-.9-2.9-.9h-.2c-2.3 0-4.4.9-6 2.3-1.8 1.5-3 4.3-3.8 8.5l-3.2 17.8-5.1.1zm55.1-4c-3.1 2.6-9.7 4.8-11.7 4.8-3.3 0-5.6-.9-7-2.6-1.1-1.3-1.7-3.1-1.7-4.9 0-.6.1-1.3.2-1.8.3-2 1.2-3.8 2.5-5.3.6-1 2.4-2.5 4.6-3.4-.3-.1 1.9-.9 4.3-1.2-.1-.1 2.7-.5 5.5-.6 1.4-.3 5.8-1.4 9.8-3.1-3.8.7-3.7.2-3.6-.1.4-2.3.2-3.8-.6-4.8-1.2-1.2-2.9-1.9-4.7-1.9h-1.3c-1.8 0-3.5.5-4.9 1.4-1.9 1.6-3.2 3.8-3.7 6.3l-4.4-2.2c1.1-3.2 3-5.8 5.4-7.8-.5.3 1.9-1.1 4.6-1.6.2-.3 2.5-.7 4.9-.7h.8c1.9 0 3.8.4 5.5 1 1.4.6 2.6 1.7 3.3 3.2.2.3.5 1.6.5 2.9v.1c-.1 2.5-.5 4.8-1.1 7.1l-.9 5.4c-1 4.9-1.4 9.9-1.4 10 0 1.3.2 2.5.6 3.7l-5.3-.1c-.2-.8-.3-1.8-.3-2.8 0-.4 0-.8.1-1.3v.3zm1.8-12.4c-3.6 1.4-7.8 2.2-12.2 2.4 1.3 0-.8.6-2.7 1.6.6-.2-.4.7-1 1.8-.2.1-.7 1.2-.8 2.4v.4c0 1 .4 2 1 2.7.9.9 2.3 1.5 3.7 1.5h.5c2 0 3.8-.5 5.4-1.4 2.2-1.2 3.8-3.1 4.8-5.4.3-.4.9-2.8 1.1-5.3l.2-.7zm77.3-28.6h5.4l-4.6 26c-.8 5.4-2.6 10.2-5.3 14.4.1-.1-2.9 2.6-6.6 4-.3.4-3.6 1.4-7 1.4h-1.6c-3 0-5.8-.8-8.2-2.3-2.2-1.5-3.8-4-4.1-6.8-.1-.8-.2-2.3-.2-3.9 0-2.4.3-4.8.8-7.1l4.6-25.8h5.5l-4.6 26c-.4 1.8-.7 3.9-.7 6 0 .9 0 1.8.1 2.8.3 1.8 1.4 3.4 2.9 4.4 1.2.8 3 1.3 4.9 1.3h.5c4 0 7-1 9-3s3.5-5.8 4.5-11.5l4.7-25.9zm9 45l5.8-32.6h4.5l-.8 4.6c2.3-3.3 6.1-5.4 10.4-5.4h.2c1.7 0 3.2.4 4.6 1.1 1.4.7 2.6 1.9 3.1 3.4.3.5.6 1.9.6 3.3v.1c-.1 2.5-.5 4.9-1.1 7.2l-3.1 18.2h-5l3.5-19.9c.2-1.1.4-2.3.4-3.5 0-.5 0-1.1-.1-1.6-.2-1.1-.9-2.1-1.8-2.7-.7-.5-1.8-.9-2.9-.9h-.2c-2.3 0-4.4.9-6 2.3-1.8 1.5-3.1 4.3-3.8 8.5l-3.2 17.8-5.1.1zm41.9-38.7l1.1-6.4h5l-1.1 6.4h-5zm-6.9 38.7l5.8-32.6h5l-5.8 32.6h-5zm16.9-16.3c1.1-6 3.4-10.5 7-13.4 2.7-2.3 6.2-3.6 10-3.6h.6c3.5 0 6.7 1.7 8.6 4.4 2.1 3 2.7 7 1.7 12.2-.6 4.5-2.4 8.6-4.9 12-.7 1.1-3.7 3.5-7.3 4.7.5.1-2.1.8-4.9.8h-.7c-3.5 0-6.7-1.7-8.6-4.4-1.9-3-2.5-7.2-1.5-12.7zm5.2 0c-.7 4.2-.5 7.3.8 9.4 1.1 1.9 3.1 3.1 5.4 3.1h.3c2.7-.1 5.2-1.3 6.8-3.2 2.4-2.8 4-6.6 4.2-10.6.6-3.3.3-5.9-1-8-1.1-1.9-3.1-3.1-5.4-3.1h-.2c-2.7 0-5.2 1.3-6.8 3.1-2.4 2.8-4 6.4-4.2 10.4l.1-1.1zm28.8 16.3l5.8-32.6h4.5l-.8 4.6c2.3-3.3 6.1-5.4 10.4-5.4h.2c1.7 0 3.2.4 4.6 1.1 1.4.7 2.6 1.9 3.1 3.4.3.5.6 1.9.6 3.3v.1c-.1 2.5-.5 4.9-1.1 7.2l-3.1 18.2h-5l3.5-19.9c.2-1.1.4-2.3.4-3.5 0-.5 0-1.1-.1-1.6-.2-1.1-.9-2.1-1.8-2.7-.7-.5-1.8-.9-2.9-.9h-.2c-2.3 0-4.4.9-6 2.3-1.8 1.5-3 4.3-3.8 8.5l-3.2 17.8-5.1.1zm32.8 12.5l8-45.1h4.5l-.8 4.2c1.9-2.4 4.4-4.1 7.3-5.1-1.6.5.2.1 2 .1h.5c2.3 0 4.4.8 6 2.2 1.9 1.7 3.2 4.1 3.4 6.7.2.6.3 2 .3 3.6 0 1.5-.1 3-.4 4.4-.7 4.2-2.4 8.1-4.9 11.4-.3.9-3.3 3.5-6.8 5 .7-.1-1.8.7-4.4.8h-.1c-1.5 0-2.9-.4-4.1-1.2-1.5-1-2.7-2.5-3.3-4.3l-2.3 17.1-4.9.2zm9.7-28.6c-.7 4.2-.5 7.3.7 9.3 1 1.8 2.8 3 5 3h.1c2.6-.1 4.9-1.3 6.4-3.2 2.4-2.8 3.9-6.6 4.1-10.7.6-3 .4-6.1-.8-8.2-.9-1.9-2.8-3.1-5-3.1-2.6.2-4.9 1.5-6.4 3.5-2.3 2.8-3.9 6.6-4.2 10.7l.1-1.3zm47.7 12c-3.1 2.6-9.7 4.8-11.8 4.8-3.3 0-5.6-.9-7.1-2.6-1.1-1.3-1.7-3.1-1.7-4.9 0-.6.1-1.3.2-1.8.3-2 1.2-3.8 2.5-5.3.6-1 2.4-2.5 4.6-3.4-.3-.1 1.9-.9 4.3-1.2-.1-.1 2.7-.5 5.5-.6 1.4-.3 5.8-1.4 9.8-3.1-3.8.7-3.7.2-3.6-.1.4-2.3.2-3.8-.6-4.8-1.2-1.2-2.9-1.9-4.7-1.9h-1.3c-1.8 0-3.5.5-4.9 1.4-1.9 1.6-3.2 3.8-3.7 6.3l-4.4-2.2c1.1-3.2 3-5.8 5.4-7.8-.5.3 1.9-1.1 4.6-1.6.2-.3 2.5-.7 4.9-.7h.8c1.9 0 3.8.4 5.5 1 1.4.6 2.6 1.7 3.3 3.2.2.3.5 1.6.5 2.9v.1c-.1 2.5-.5 4.8-1.1 7.1l-.9 5.4c-1 4.9-1.4 9.9-1.4 10 0 1.3.2 2.5.6 3.7l-5.3-.1c-.2-.8-.3-1.8-.3-2.8 0-.4 0-.8.1-1.3l.2.3zm1.7-12.3c-3.6 1.4-7.8 2.2-12.2 2.4 1.3 0-.8.6-2.7 1.6.6-.2-.4.7-1 1.8-.2.1-.7 1.2-.8 2.4v.4c0 1 .4 2 1 2.7.9.9 2.3 1.5 3.7 1.5h.5c2 0 3.8-.5 5.4-1.4 2.2-1.2 3.8-3.1 4.8-5.4.3-.4 1-2.8 1.1-5.4l.2-.6zM813 213l.4-5.2c.9.3 1.9.5 3 .5-.1 0-.1 0 0 0 .9 0 1.8-.2 2.6-.6 1.1-.6 2-1.6 2.5-2.7 1.8-2.6 3.5-6.9 4.2-11.5-2.4 8.1-2.2 7.7-1.9 7.1l-5.5-32.7h5.4l2.8 18.9c.4 2.4.6 4.9.8 7.5 1-2.5 2.1-5 3.4-7.4l9.7-19h5L828.5 201c-5.2 10.3-7.8 11.7-10.4 12.8 1.3-.6-.2-.1-1.8-.1h-.1c-1.2 0-2.3-.3-3.3-.8l.1.1zm0 0" fill="#394144"/></svg>