<?xml version="1.0" encoding="utf-8"?>
<!-- Generator: Adobe Illustrator 22.0.0, SVG Export Plug-In . SVG Version: 6.00 Build 0)  -->
<svg version="1.1" id="图层_1" xmlns="http://www.w3.org/2000/svg" xmlns:xlink="http://www.w3.org/1999/xlink" x="0px" y="0px"
	 viewBox="0 0 751.7 225.4" style="enable-background:new 0 0 751.7 225.4;" xml:space="preserve">
<style type="text/css">
	.st0{clip-path:url(#SVGID_2_);fill:#25ABEE;}
	.st1{fill:#394144;}
</style>
<g>
	<g>
		<defs>
			<rect id="SVGID_1_" x="1" y="-0.4" width="750.7" height="225.7"/>
		</defs>
		<clipPath id="SVGID_2_">
			<use xlink:href="#SVGID_1_"  style="overflow:visible;"/>
		</clipPath>
		<path class="st0" d="M55.8,122.1c-5.6,0.6-16.2,3.1-22,8.2C16.4,145.4,26.8,173,62,173c20.4,0,40.8-13,56.9-33.9
			C96.1,128,76.7,120,55.8,122.1L55.8,122.1z M187,141.2c32.5,10.9,39.9,11.4,39.9,11.4V35.8c0-9.6-3.8-18.8-10.6-25.5
			c-6.8-6.8-16-10.6-25.5-10.6H37.1c-9.6,0-18.8,3.8-25.5,10.6C4.8,17,1,26.2,1,35.8v153.1c0,9.6,3.8,18.8,10.6,25.5
			c6.8,6.8,16,10.6,25.5,10.6h153.6c9.6,0,18.8-3.8,25.5-10.6c6.8-6.8,10.6-16,10.6-25.5v-1.5c0,0-58.8-24.4-88.4-38.6
			C118.5,173.2,92.8,188,66.1,188c-45.1,0-60.4-39.3-39-65.2c4.7-5.6,12.6-11,24.9-14.1c19.2-4.7,49.8,2.9,78.5,12.4
			c5.3-9.9,9.6-20.2,12.7-31H54.8v-8.9h45.5V65.1H45.3v-8.8h55.2V33.4c0-1,0.4-2,1.1-2.8c0.7-0.7,1.7-1.1,2.8-1.1h22.3v26.7h54.5
			v8.9h-54.5v16.1h44.5c-4,16.6-10.4,32.6-18.9,47.5C165.8,133.6,177.9,138.3,187,141.2L187,141.2z M187,141.2"/>
	</g>
	<path class="st1" d="M649.1,27.6h73.3v14.5h26.2V25c0,0,0-0.1,0-0.1c0-3.8-3-6.9-6.8-7.1h-42.4V4.3H672v13.5h-49.1v24.3h26.2V27.6z
		 M471.9,5.5L445.1,69h20.6v75.5h22.5V44.3H480l17-38.8H471.9z M743.3,113.2c-0.5-1.8-2.2-3-4-3.1h-21.8l6.3,21.3h-25.6V90.2h50.3
		v-9.8h-50.3V60.9h50.3v-9.8H622.9v9.8h50.3v19.4h-50.3v9.8h50.3v41.3h-50.3v9.8h128.6l-0.1-0.3h0.1L743.3,113.2z M529.4,57.5
		c-0.9-1.8-2.7-2.9-4.6-3h-19.5l15.2,47.8h23L529.4,57.5z M529.4,57.5"/>
	<path class="st1" d="M578.7,6.7h-23.4v24.4h-57.6V41h57.6v87.9c-0.2,2-1.8,3.6-3.8,3.7h-11.9v10.2H570c4.9-0.3,8.7-4.2,8.7-9.1V41
		h9.5v-9.8h-9.5V6.7z M417.4,135.2c-18-6.4-35.3-14.6-51.5-24.6c19.3-14.3,36.1-33.6,42.8-59.5h-44.9V35.1h52.1V25.1h-52.1V4.7
		h-23.2c-1.2,0-2.4,0.5-3.3,1.4C336.4,7,336,8.2,336,9.5v15.6h-51.7v10H336v16.1h-43.7v10h87c0,0-4.8,18.8-28.7,39
		c-21.4-16.1-28.5-29-28.5-29h-23.4c9.4,16.4,22.8,29.4,37.3,39.9c-13.3,8.6-30.5,16.9-52.7,23.6v12c23.7-5.1,46.5-13.9,67.5-26
		c20.8,11.9,43.2,20.7,66.6,26V135.2z M309.3,165l-21.4,58.2h10.9l4-11.7h21.4l3.9,11.7H339L317.6,165H309.3z M305.4,204.2l8.4-24.1
		l8,24.1H305.4z M397.3,165h-10.5v58.2h35.2v-7.9h-24.8V165z M473.9,165h10.5v58.2h-10.5V165z M562.8,165h-22.6v58.2h10.5v-22.4
		h12.2c11.3,0,19.2-7.4,19.2-17.9C582,172.4,574.1,165,562.8,165L562.8,165z M562.2,192.9h-11.6v-19.9h11.6c5.8,0,9.3,5.1,9.3,10
		C571.5,187.8,568.2,192.9,562.2,192.9L562.2,192.9z M641.9,165l-21.4,58.2h10.9l4-11.7h21.4l3.9,11.7h10.9L650.1,165H641.9z
		 M637.9,204.2l8.4-24.1l8,24.1H637.9z M730,165l-11.4,24.8L706.9,165h-11.3l17.6,34.3v23.9h10.4v-23.9l0.1-0.1l17.6-34.2H730z
		 M730,165"/>
</g>
</svg>
