<?xml version="1.0" encoding="utf-8"?>
<!-- Generator: Adobe Illustrator 22.0.0, SVG Export Plug-In . SVG Version: 6.00 Build 0)  -->
<svg version="1.1" id="图层_1" xmlns="http://www.w3.org/2000/svg" xmlns:xlink="http://www.w3.org/1999/xlink" x="0px" y="0px"
	 viewBox="0 0 870 235.7" style="enable-background:new 0 0 870 235.7;" xml:space="preserve">
<style type="text/css">
	.st0{clip-path:url(#SVGID_2_);fill:#E03333;}
	.st1{fill:#004889;}
	.st2{fill:#008089;}
	.st3{fill:#394144;}
</style>
<g>
	<defs>
		<rect id="SVGID_1_" x="1" y="-0.4" width="888.1" height="236.1"/>
	</defs>
	<clipPath id="SVGID_2_">
		<use xlink:href="#SVGID_1_"  style="overflow:visible;"/>
	</clipPath>
	<path class="st0" d="M87.7,211.5l27.7-118.8c-0.2-0.1-0.5-0.1-0.8-0.1h0c-1.5,0.1-2.9,0.7-4.1,1.4c-0.1,2.1-1.5,8.7-2.1,11.8
		c-1.4,6.4-1.5,7.1-2.1,10.3l-0.4,0.4c-4.9,0-6.5,0-12.1,0.2l-0.3-0.5c0.9-3.8,1.9-7.6,2.8-11.5c2.8-10.9,4.5-23.4,4.7-36.3
		l-0.7,16.5c5.5-0.8,6.8-0.9,12.7-2.1l0.5,0.6l-0.9,3.3c1-0.6,1.9-1.2,3-1.7c1.6-0.8,3.5-1.3,5.4-1.5l10.5-59.6
		C134.6,10.6,147.7,0,160.8,0H74.6C61.5,0,48.4,10.6,45.3,23.8L1.6,211.5c-3,13.1,5.1,23.8,18.2,23.8h86.1
		C92.7,235.3,84.6,224.6,87.7,211.5L87.7,211.5z M79.1,112.8c-4.6,2.5-10.1,4-15.9,4c-0.4,0-0.7,0-1.1,0c-5.1,0-14.1-0.8-17.3-6.4
		c-0.9-1.7-1.5-3.8-1.5-5.9c0-0.1,0-0.3,0-0.4l1.1-8.5l0.6-2.6l6.9-30.9c0,0,0.4-1.7,0.4-2c0.1,0.2,2.5,0.3,15.8,0.2l-0.1,0.4
		c-1.2,3.6-8.1,31-8.1,31l-1.3,8.2v1.4c0.4,4,3,6.2,7.2,6.2c0.1,0,0.2,0,0.2,0c2.6,0,4.9-0.9,6.7-2.4c3.4-2.8,4.5-7.1,5.9-13.2
		c0,0,6.5-30.1,6.9-31.7c0.9,0.2,3.8,0.3,13.4,0.2c-0.1,0.2-0.1,0.4-0.1,0.6c-1.2,3.6-8.2,32-8.2,32l-0.8,3.1
		C88.3,101.7,86.4,108.4,79.1,112.8L79.1,112.8z M79.1,112.8"/>
</g>
<path class="st1" d="M191.4,211.5l7.3-31.1h-3.1c-2.6,0-4.4,0-5.7-0.2c-0.2,0-0.3,0-0.5,0c-1,0-2-0.3-2.9-0.7
	c-0.7-0.6-1.9-1.6-1.8-2.4c0.4-2.8,1.2-5.3,2.3-7.6l13.3-45.1h10.5l-1.6,5.3c0,0,0.7-0.5,1.6-1.2l3-12c-1.9,0-3.8,0.1-6.8,0.2
	l-0.2-0.4c0.5-2.1,1-4.2,1.6-6.3l0.7-2.9c1-4.5,2-9.7,2.1-11.3c0.1-1,0.4-3.3-2.3-3.3c-1.5,0.1-2.9,0.6-4.1,1.4
	c-0.2,2.1-1.5,8.7-2.2,11.8c-1.3,6.4-1.4,7.1-2,10.3l-0.4,0.4c-4.9,0-6.5,0-12.1,0.2l-0.3-0.5c0.9-3.8,1.8-7.6,2.7-11.5
	c2.7-10.8,4.4-23.2,4.7-35.9l-0.7,16.1c5.5-0.8,6.8-0.9,12.7-2.1l0.5,0.6l-0.9,3.3c1-0.6,2-1.2,3-1.7c2.3-1.1,5-1.8,7.8-1.8
	c-0.2,0-0.1,0,0,0c1.4,0,2.7,0.3,3.9,0.9l14-60.3C238.3,10.6,251.4,0,264.5,0H160.7c-13.1,0-26.2,10.7-29.3,23.8l-14.1,60.4
	c1.8-0.6,3.9-1,6.1-1c2.3,0,5.1,0.7,6.3,3.7c1.1,2.7,0.4,6-1.1,12.4l-0.8,3.3c-1.6,7.2-1.8,8.5-2.6,13.5l-0.6,0.4
	c-4.7,0-6.4,0-11.9,0.2l-0.2-0.4c0.5-2.1,1-4.2,1.5-6.3l0.7-2.9c1-4.5,2-9.7,2.1-11.3c0.1-0.9,0.3-2.8-1.6-3.2L87.7,211.5
	c-3.1,13.1,5,23.8,18.2,23.8h103.7C196.4,235.3,188.3,224.6,191.4,211.5L191.4,211.5z M194.9,128.4l-2.2,7.5h-16.8l-1.8,1.6
	c-0.8,0.8-1.1,0.4-2.1,1c-1.6,0.9-3.6,1.4-5.6,1.4h-5.3l2.2-7.2h1.6c0.2,0,0.3,0,0.5,0c0.8,0,1.6-0.2,2.2-0.5
	c1.1-0.9,1.8-2.1,2.2-3.5l2.7-4.4h12.2l-2.1,4.1L194.9,128.4L194.9,128.4z M150.9,88.9c-0.5,1.8-2,7.6-2.4,9.4
	c-0.5,2.1-1.1,4.2-1.6,6.3c-1.1,4.5-1.5,6.2-1.7,7.4c-0.3,1.2-0.3,1.8-0.7,4.1l-0.3,0.2l-0.3,0.2h-6.5c-1.7,0-3.5,0.1-6.2,0.2
	l-0.2-0.2l-0.2-0.2c1-3.8,2.5-7.2,4.5-10.2c-2,3.1-1.3-0.1-1.1-3.4c0.2,1.3,0.7-1.1,1.1-3.2c0.3-2.1,1.6-7.6,1.9-9.4
	c0-0.1,0-0.2,0-0.3c0-1.7,1-3.2,2.4-3.9c3-2.1,7.4-2.5,9.9-1c1,0.5,1.6,1.5,1.6,2.6C151.3,88,151.1,88.5,150.9,88.9L150.9,88.9z
	 M153.3,100c1-5.5,3.8-10.3,7.8-13.7c2.1-1.6,6.8-3.5,11.9-3.5c0.3,0,0.5,0,0.8,0c4.5,0,8.8,1,11.3,4.2c1.6,2.1,2.9,5.5,1.2,12.7
	c-1.1,5.3-3.7,9.8-7.2,13.3c-1.6,1.4-6.6,3.7-12.1,3.7c-0.3,0-0.6,0-0.9,0c-0.1,0-0.2,0-0.4,0c-2.6,0-5.1-0.4-7.4-1.3
	C151,112.5,152.2,104.5,153.3,100L153.3,100z M178.9,180.3h-13.8c-1.2,0-2.3-0.2-3.4-0.5c-0.8-0.1-1.6-0.8-2-1.7
	c-0.5-0.4-0.8-1.2-0.8-2c0-0.3,0.1-0.7,0.2-1l3.9-13.1h-6.8l2.2-7.5h6.8l1.8-6.1h-6.8l2.2-7.1h29.9l-2.2,7.2h-12l-1.9,6.1h12.2
	l-2.2,7.4h-12.2l-2.9,9.7c-0.4,1.1,2.9,1.2,4.1,1.2l6.1-0.8L178.9,180.3L178.9,180.3z M178.9,180.3"/>
<path class="st1" d="M208.6,132.4l-2.5,8.3c1.7-1.4,3.8-2.5,6-3.1l-2.4-5.2L208.6,132.4L208.6,132.4z M167.6,109.2
	c1.6-0.2,2.9-1.1,3.6-2.4c1.7-3,2.8-6.7,3.1-10.6c0.9-2.6,0.7-6-2.2-6c-3.7,0-5.2,4.6-6.5,10.1c-0.5,1.7-0.8,3.7-0.8,5.7
	C164.9,109.2,167.2,109.2,167.6,109.2L167.6,109.2z M197.7,169.2c-0.4,1.6-0.6,2.2-0.4,2.6c0.3,0.5,0.9,0.8,1.5,0.8c0,0,0,0,0.1,0
	l1.6-0.2l4.3-18.4h-2.5L197.7,169.2L197.7,169.2z M205.2,143.8l-1.1,3.5h2.2l0.8-3.5H205.2z M205.2,143.8"/>
<path class="st2" d="M285.7,109.3c1.9-0.1,3.6-0.9,4.8-2.3c0.9-1.3,1.6-3,1.8-4.8c-0.1,0.5,0.3-1.1,0.7-2.8c0.3-1.1,0.5-2.1,0.7-3
	c0.3-3.8-1-5.9-3.4-5.9c-3.8,0-5.2,4.6-6.5,10c-0.5,1.8-0.8,3.8-0.8,6C283.1,109.3,285.4,109.3,285.7,109.3L285.7,109.3z
	 M221.2,147.2l1.1-3.4h-15.2l-0.8,3.5h12.7c0.3,0,0.7-0.1,1.1-0.1C220.5,147.2,220.9,147.2,221.2,147.2L221.2,147.2z M221.2,147.2"
	/>
<path class="st2" d="M358.3,0h-93.9c-13.2,0-26.3,10.7-29.3,23.8L221,84c1.3,0.7,2.3,1.9,2.7,3.4c0.9,2.1,0.2,5.4-1.3,11.9l-0.8,3.3
	c-1.6,7.2-1.8,8.5-2.6,13.5l-0.6,0.4h-5.1l-2.8,12c2.7-2,5.9-3.4,9.3-4.1c-1.4,0.5,3.2-0.2,7.8-0.3l11.2,0.4l-5.7,19.2
	c-1,3.6-2.7,6.7-5,9.2c1.3-1.4-0.1-0.3-1.8,0.3c-0.3,0.4-2,0.9-3.8,1c-0.2,0-1.9,0-4.3,0.1h-13.8l-4.3,18.3l5.6-0.5l-2.4,8.4h-5
	l-7.3,31.2c-3.1,13.1,5.1,23.8,18.2,23.8h93.8c13.1,0,26.3-10.7,29.3-23.8l43.7-187.7C379.6,10.7,371.4,0,358.3,0L358.3,0z
	 M291.2,83.1c2.1,0.8,3.7,2.3,4.6,4.2c-0.4-1.2-0.3-1.7-0.3-2.1l0.4-0.4c5.7-0.8,7.2-1,13.1-2.1l0.2,0.5c-1.1,4.5-2.1,8.9-3.1,13.4
	c-2.2,9.4-3,14.1-3.8,19l-0.5,0.4c-5.7,0-7.3,0-12.6,0.2l-0.3-0.4c0.2-0.7,0.3-1.3,0.5-2c-1.8,1.7-4.2,2.8-6.8,2.9
	c0.3,0,0.1,0-0.2,0c-2.1,0-4.1-0.4-5.9-1.2c-7.2-2.8-6.1-10.8-5-15.2c1-5.5,3.8-10.2,7.7-13.6C282.8,83.4,288.7,82.1,291.2,83.1
	L291.2,83.1z M226.3,116.6l9.2-37.7l3.6-17l0.4-2.1c1.7,0.2,5.8,0.3,16,0.1h3.9c8,0,14.9,0.1,18.4,5c1.2,1.7,1.9,3.8,1.9,6
	c0,0.2,0,0.3,0,0.5c0,1.9-0.3,3.7-0.7,5.4c-1.3,6.4-5.3,11.9-10.8,15.4c-5.1,3.9-13.9,3.9-21.5,3.9h-0.8c-0.7,0.5-1.3,1.1-1.6,1.8
	c0.4-0.5-1.4,6.9-1.4,6.9s-2.1,10.1-2.4,11.7c-1.6-0.1-5.2-0.1-14.1,0L226.3,116.6z M229.7,159.9c-0.3,1.6-1.1,2.9-2.3,3.8
	c-0.9,0.9-2.7,1.7-4.7,1.7c-0.2,0-0.4,0-0.5,0l-5.7,0.2v5.2c0,1.5,0.3,1.3,0.5,1.6c0.3,0.3,0.6,0.5,1,0.5l1.6-0.1l5.5-0.3l-2.3,7.6
	h-6.4c-4.5,0-7.8-0.1-8.9-1c-1.1-0.9-1.2-1.6-1.2-3l0.4-20.4h10.1l-0.1,4.2h2.4c0.1,0,0.2,0,0.3,0c0.5,0,1-0.1,1.5-0.3
	c0.4-0.3,0.7-0.8,0.7-1.3l0.9-3h8L229.7,159.9L229.7,159.9z M265.2,180.2h-10.9l0.7-2.4h-22.1l2.2-7.2h2.2l11.6-38.4l2.3-7.8h11.1
	l-1.2,3.9c2.7-1.9,5.9-3.1,9.4-3.6c-1.3,0.2,10.2-0.1,14-0.2h11.9l0.1,4.4c0,0.7,0.6,1.1,1.9,1.1h2.4l-2.2,7.3h-6.4
	c-5.5,0.4-7.6-2-7.5-4.7l-0.1-4.3l-1.2,3.9h-3.8l-11.4,37.9h3.1l-2.4,7.8h-3.1L265.2,180.2L265.2,180.2z M314.3,146.5h-11.9
	l-1.9,5.9h11.9l-2,6.5h-12.9l-2.3,2.7h5.2l1.3,8.2c0,0.7,0.2,1.3,0.5,1.8c0.6,0.2,1.4,0.3,2.3,0.3c0.1,0,0.3,0,0.4,0h1.5l-2.4,8h-4
	c-0.6,0-1.6,0-2.8-0.1c-1.4-0.3-2.6-0.9-3.6-1.8c-0.4,0-1.2-1.1-1.4-2.4l-1.2-8l-5.9,8c-1.8,2.7-4.9,4.5-8.3,4.5c-0.1,0-0.2,0-0.3,0
	h-8.2l2.1-7.1h3.1c0.9,0,1.7-0.3,2.4-0.7c0.8-0.3,1.4-0.9,1.8-1.7l8.3-11.7h-11.3l1.9-6.5h12.9l1.8-5.9h-12.7l2.2-7.3h35.5
	L314.3,146.5L314.3,146.5z M321.8,124l-0.5,0.6h0.1l-4.6,7.8c-1.6,2.8-4.5,4.7-7.9,4.7c-0.2,0-0.3,0-0.5,0l-7.3-0.1l2.1-7.1h1.4
	c0.1,0,0.2,0,0.3,0c0.5,0,1-0.1,1.4-0.3c0.5-0.2,0.8-0.6,1-1.1l2.4-3.8c3.6-5.5,4.5-7.8,8.3-14.1c-0.7-7-1-9.3-1.6-13.9
	c-0.3-2.7-0.8-5.6-1.1-8.3c-0.5-5.3-1.4-10.2-2.8-14.8l1.6,6.3v-0.6l0.5-0.4c5.6-0.7,5.8-0.9,11.9-2.1l0.5,0.5l0.8,15.7v0.9
	c3.3-7.2,3.1-5.3,7.1-14.5v0.1c0,0,0-0.1,0-0.1c0,0,0-0.1,0-0.1l0.4-0.4c5.4-0.7,6.4-0.9,12.2-2.1l0.5,0.5
	C348.2,77.2,325,117.4,321.8,124L321.8,124z M321.8,124"/>
<path class="st2" d="M224.7,136.4l1.2-4.1h-16.1l-1.6,6.9c2.6-1.6,5.8-2.7,9.2-2.9C216.5,136.4,224.7,136.4,224.7,136.4L224.7,136.4
	z M258.2,86c3.5-1.8,5.9-5.2,6.5-9.2c0.8-3.4-0.5-6.6-3.7-7.8l-8.3-0.6l-1.6-0.2v0.7l-0.1,0.9l-3.9,16.9l-0.2,0.8h2.1
	c0.4,0,0.9,0,1.4,0c2.7,0,5.3-0.5,7.7-1.5L258.2,86z M248.7,170h8.9l2.6-8.5h-9L248.7,170z M260.2,132.1l-2.9,9.7
	c4.7-2.2,10.2-3.7,16-4.2c-9,1.8-6.9,1.5-4.7,1.5l0.5-7L260.2,132.1L260.2,132.1z M252.8,156.7c4.6-2.4,10-4.1,15.8-4.7
	c-8.8,2.1-6,1.7-6,1.7l2.2-7h-8.9L252.8,156.7z M252.8,156.7"/>
<path class="st3" d="M412,56.7h38.5l1.3-7h13.1l-1.3,7h39l-12.3,69.2c-0.4,2.4-1.3,4.5-2.6,6.3c-0.3,0.6-2.2,2.4-4.4,3.4
	c0.6-0.1-1.2,0.5-3.2,0.5c-0.1,0-0.3,0-0.4,0h-30.2L448,145h-13.1l1.5-8.8h-38.5L412,56.7L412,56.7z M413.5,123.4h25.1l9.6-54.1
	h-25.1L413.5,123.4L413.5,123.4z M451.8,123.4h21.6c0.2,0,0.5,0,0.8,0c1,0,2-0.2,2.8-0.7c0.6-0.7,1-1.7,1-2.8l9-50.7h-25.6
	l-9.6,54.1L451.8,123.4z M545.7,90.9h18.6l2-11.3h-18.6l1.9-10.5H603l-1.9,10.5h-21.6l-2,11.3h21.2l-1.9,10.4h-21.2l-2.7,15.1h7.5
	l4.4-6.6h8.2l-0.8,6.6h3.8l-1.9,10.5h-54.8l1.9-10.4h18.6l2.7-15.1h-18.7L545.7,90.9L545.7,90.9z M533.8,51h91.4l-14.4,81.1
	c-0.5,3.1-1.5,5.8-3,8.3c0.2-0.4-1.7,1.7-4,3.1c-0.1,0.4-3.4,0.6-9.9,0.6h-76.6L533.8,51L533.8,51z M532.9,133.2h60.7
	c0.1,0,0.3,0,0.4,0c0.9,0,1.7-0.3,2.3-0.9c0.6-0.9,1-2.1,1.1-3.3l11.9-67.2h-63.8L532.9,133.2L532.9,133.2z M649.1,78.5H687l-2,11.5
	h-16.2l-2.1,11.6h16.5l-2,11.1h-16.5l-2.9,16.3c-0.3,1.9-0.3,3,0,3.4c0.3,0.4,1.2,0.6,2.7,0.6h9.7l-2,11.2h-16.6
	c-1.6,0-3.2-0.3-4.6-0.8c-1.3-0.4-2.6-1.5-3.3-3c-0.2-0.6-0.4-1.9-0.4-3.1c0-0.9,0.1-1.9,0.4-2.7l3.8-21.7h-9.4l2-11.3h9.4l2.1-11.6
	h-8.6L649.1,78.5L649.1,78.5z M672.3,57.2h18.5l-2,11h-21.3l-1.8,2.4c-1.5,2.1-3.6,3.7-5.9,4.6c1.6-0.7-0.7-0.3-3.9-0.3h-6.8
	l1.9-10.8h2c0.2,0,0.4,0,0.6,0c1.1,0,2.1-0.3,2.9-0.8c1.2-1.5,2-3.3,2.3-5.4l3.3-8.3H675L672.3,57.2L672.3,57.2z M696.5,50.9h49.7
	l-5.6,31.5c-0.8,5.8-2.4,11-4.8,15.8c1-2.8-0.9-1-3.2,0.1c0.1,0.3-1.9,1.2-4.1,1.3c-0.7,0-2.7,0.1-4.7,0.1c-0.3,0-0.7,0-1,0h-22.1
	l-4.8,27.3c-0.5,2.5-0.5,4.1-0.1,4.7c0.4,0.6,1,0.9,1.7,0.9c0.1,0,0.2,0,0.2,0l6.3,0l-2,11.2h-7.7c-3.2,0-5.7-0.1-7.2-0.3
	c-1.7-0.1-3.1-0.9-4.2-2.1c-0.8-0.7-1.4-2.1-1.4-3.6v0c0.2-3.3,0.7-6.4,1.4-9.4L696.5,50.9L696.5,50.9z M728.2,81.6h-24.4l-1.4,7.6
	h21.5c0.1,0,0.1,0,0.2,0c0.9,0,1.6-0.4,2.2-1c0.6-0.7,1.1-1.5,1.2-2.5L728.2,81.6L728.2,81.6z M705.7,70.9h24.4l1.6-9h-24.5l-1.6,9
	H705.7z M738.9,103.3l-1.2,6.7c-0.7,4.2-2,8-3.7,11.4c1.5-3.3-1.1-2.4-5.9-2.4h-6.7l0.3,9c0,0.2,0,0.5,0,0.8c0,1.3,0.2,2.5,0.6,3.7
	c0.2,0.3,0.6,0.6,1.1,0.7l2.2-0.1h6.9l-2,11.2h-8c-5.7,0-9.3-0.6-10.7-1.9c-1.4-1.3-2.2-3.2-2.2-5.2c0-0.1,0-0.1,0-0.2l-1.3-33.8
	h12.9l0.2,6.9h4.6c0.1,0,0.2,0,0.4,0c0.7,0,1.3-0.2,1.8-0.6c0.4-0.5,0.7-1.2,0.8-1.9l0.8-4.2H738.9z M814.5,62.2l-11.8,66.3h4.2
	l-2,11.4h-4.2l-0.9,5.3h-13.2l0.9-5.3h-28.2l2-11.4h3.3l11.8-66.3h-3.3l2-11.3h45.6l-2,11.3H814.5z M789.7,62.2l-2.5,14.3h11.7
	l2.5-14.3H789.7z M777.9,128.5h11.7l2.8-15.5h-11.7L777.9,128.5z M782.6,101.9h11.7l2.6-14.5h-11.7L782.6,101.9z M822.5,50.1h13.1
	l0.1,7c0,1.3,0.9,1.9,2.7,1.9h3.2l-2,11h-8.5c-5.7,0-8.6-2.3-8.6-6.9L822.5,50.1L822.5,50.1z M827.5,109.6h-15.5l2-11.2h17l2.2-12.6
	h-17l2-11.2h46l-2,11.2h-15.7l-2.2,12.6h15.7l-2.1,11.2h-16.9l-3.2,6.9h8.1l2.5,13.9c0.1,1.3,0.6,2.4,1.2,3.4c0.2,0,0.8,0.3,1.6,0.3
	c0.1,0,0.3,0,0.4,0l2.1,0l-2,11h-5.3c-0.8,0-2.1-0.1-3.7-0.2c-1.7-0.1-3.2-0.7-4.5-1.5c-0.6-0.4-1.4-2-1.8-4.5l-2.7-14.3l-7.4,14.1
	c-2.3,4.3-6.2,6.4-11.8,6.4h-8.7l2-11h4c0.1,0,0.1,0,0.2,0c1,0,1.9-0.3,2.7-0.8c1.3-1,2.2-2.5,2.6-4.1L827.5,109.6L827.5,109.6z
	 M869.1,49.9l-4.7,13c-1.7,4.6-5.4,7-11,7h-8.5l2-11h3.2c0.1,0,0.2,0,0.3,0c0.7,0,1.4-0.2,2-0.4c0.6-0.4,1-1,1.2-1.7l2.5-6.8
	L869.1,49.9z M418.6,184.7l5.2,1.5c-2.2,5.8-6.2,10.4-11.3,13.4c0.1,0.2-3.9,1.7-8.2,1.7c-0.1,0-0.1,0-0.2,0c-0.3,0-0.6,0-0.9,0
	c-3.5,0-6.7-1.1-9.4-3.1c-2.7-2.4-4.5-5.8-4.9-9.6c-0.2-0.8-0.4-2.9-0.4-5c0-2.1,0.2-4.2,0.6-6.2c0.9-5.6,3.2-10.7,6.6-14.9
	c0.8-1.6,5-5,10-6.7c-0.6-0.1,3-1.1,6.8-1.1c0.2,0,0.5,0,0.7,0c3.5,0,6.6,1.3,9,3.5c2.5,2.6,4.1,6.1,4.1,9.9l-5.6,1.1
	c-0.1-2.8-1.3-5.4-3.1-7.3c-1.3-1.2-3.4-2-5.7-2c-0.2,0-0.4,0-0.6,0c-0.1,0-0.1,0-0.2,0c-3,0-5.8,0.9-8.1,2.5
	c-3.1,2.2-5.5,5.4-6.5,9.2c-0.9,1.2-2.1,5.5-2.3,10.1c0.1-2.3-0.1-0.3-0.1,1.7c0,1.5,0.1,3,0.3,4.4c0.3,2.6,1.8,5,4,6.5
	c1.4,1,3.6,1.8,6,1.8c0.1,0,0.1,0,0.2,0c0,0,0,0,0,0c3.1,0,5.9-1.1,8.2-2.9c3.3-2.8,5.6-6.7,6.4-11.1L418.6,184.7z M430.4,200.5
	l8-45h5l-2.9,16.2c2.4-2.7,5.9-4.5,9.8-4.5c0,0,0.1,0,0.1,0c1.9,0,3.7,0.6,5.3,1.5c1.5,1,2.6,2.5,2.8,4.4c0.1,0.5,0.2,1.5,0.2,2.6
	c0,1.5-0.2,3-0.5,4.4l-3.6,20.6h-5l3.7-20.7c0.5-2.8,0.3-4.8-0.6-6c-0.9-1.2-2.3-1.9-3.9-1.9c-0.2,0-0.3,0-0.5,0
	c-1.7,0-3.2,0.5-4.5,1.3c-1.8,1-3.2,2.7-3.9,4.7c-0.6,1-1.3,3.7-1.5,6.6l-3,16L430.4,200.5z M472.3,161.8l1.1-6.4h5l-1.1,6.4H472.3z
	 M465.4,200.5l5.8-32.6h5l-5.8,32.6H465.4z M481.3,200.5l5.8-32.6h4.5l-0.8,4.6c2.3-3.3,6.1-5.4,10.4-5.4c0.1,0,0.1,0,0.2,0
	c1.7,0,3.2,0.4,4.6,1.1c1.4,0.7,2.6,1.9,3.1,3.4c0.3,0.5,0.6,1.9,0.6,3.3c0,0,0,0.1,0,0.1c-0.1,2.5-0.5,4.9-1.1,7.2l-3.1,18.2h-5
	l3.5-19.9c0.2-1.1,0.4-2.3,0.4-3.5c0-0.5,0-1.1-0.1-1.6c-0.2-1.1-0.9-2.1-1.8-2.7c-0.7-0.5-1.8-0.9-2.9-0.9c-0.1,0-0.1,0-0.2,0
	c-2.3,0-4.4,0.9-6,2.3c-1.8,1.5-3,4.3-3.8,8.5l-3.2,17.8L481.3,200.5z M536.4,196.5c-3.1,2.6-9.7,4.8-11.7,4.8h0
	c-3.3,0-5.6-0.9-7-2.6c-1.1-1.3-1.7-3.1-1.7-4.9c0-0.6,0.1-1.3,0.2-1.8c0.3-2,1.2-3.8,2.5-5.3c0.6-1,2.4-2.5,4.6-3.4
	c-0.3-0.1,1.9-0.9,4.3-1.2c-0.1-0.1,2.7-0.5,5.5-0.6c1.4-0.3,5.8-1.4,9.8-3.1c-3.8,0.7-3.7,0.2-3.6-0.1c0.4-2.3,0.2-3.8-0.6-4.8
	c-1.2-1.2-2.9-1.9-4.7-1.9c-0.2,0-0.5,0-0.7,0c-0.1,0-0.3,0-0.6,0c-1.8,0-3.5,0.5-4.9,1.4c-1.9,1.6-3.2,3.8-3.7,6.3l-4.4-2.2
	c1.1-3.2,3-5.8,5.4-7.8c-0.5,0.3,1.9-1.1,4.6-1.6c0.2-0.3,2.5-0.7,4.9-0.7c0.1,0,0.2,0,0.2,0c0.2,0,0.4,0,0.6,0c1.9,0,3.8,0.4,5.5,1
	c1.4,0.6,2.6,1.7,3.3,3.2c0.2,0.3,0.5,1.6,0.5,2.9c0,0,0,0.1,0,0.1c-0.1,2.5-0.5,4.8-1.1,7.1l-0.9,5.4c-1,4.9-1.4,9.9-1.4,10
	c0,1.3,0.2,2.5,0.6,3.7l-5.3-0.1c-0.2-0.8-0.3-1.8-0.3-2.8c0-0.4,0-0.8,0.1-1.3L536.4,196.5z M538.2,184.1
	c-3.6,1.4-7.8,2.2-12.2,2.4c1.3,0-0.8,0.6-2.7,1.6c0.6-0.2-0.4,0.7-1,1.8c-0.2,0.1-0.7,1.2-0.8,2.4c0-0.3,0,0,0,0.4c0,1,0.4,2,1,2.7
	c0.9,0.9,2.3,1.5,3.7,1.5c0.2,0,0.3,0,0.5,0c0,0,0,0,0,0c2,0,3.8-0.5,5.4-1.4c2.2-1.2,3.8-3.1,4.8-5.4c0.3-0.4,0.9-2.8,1.1-5.3
	L538.2,184.1L538.2,184.1z M615.5,155.5h5.4l-4.6,26c-0.8,5.4-2.6,10.2-5.3,14.4c0.1-0.1-2.9,2.6-6.6,4c-0.3,0.4-3.6,1.4-7,1.4
	c-0.2,0-0.4,0-0.7,0c-0.2,0-0.5,0-0.9,0c-3,0-5.8-0.8-8.2-2.3c-2.2-1.5-3.8-4-4.1-6.8c-0.1-0.8-0.2-2.3-0.2-3.9
	c0-2.4,0.3-4.8,0.8-7.1l4.6-25.8h5.5l-4.6,26c-0.4,1.8-0.7,3.9-0.7,6c0,0.9,0,1.8,0.1,2.8c0.3,1.8,1.4,3.4,2.9,4.4
	c1.2,0.8,3,1.3,4.9,1.3c0.2,0,0.3,0,0.5,0c4,0,7-1,9-3c2-2,3.5-5.8,4.5-11.5L615.5,155.5L615.5,155.5z M624.5,200.5l5.8-32.6h4.5
	l-0.8,4.6c2.3-3.3,6.1-5.4,10.4-5.4c0.1,0,0.1,0,0.2,0c1.7,0,3.2,0.4,4.6,1.1c1.4,0.7,2.6,1.9,3.1,3.4c0.3,0.5,0.6,1.9,0.6,3.3
	c0,0,0,0.1,0,0.1c-0.1,2.5-0.5,4.9-1.1,7.2l-3.1,18.2h-5l3.5-19.9c0.2-1.1,0.4-2.3,0.4-3.5c0-0.5,0-1.1-0.1-1.6
	c-0.2-1.1-0.9-2.1-1.8-2.7c-0.7-0.5-1.8-0.9-2.9-0.9c-0.1,0-0.1,0-0.2,0c-2.3,0-4.4,0.9-6,2.3c-1.8,1.5-3.1,4.3-3.8,8.5l-3.2,17.8
	L624.5,200.5z M666.4,161.8l1.1-6.4h5l-1.1,6.4H666.4z M659.5,200.5l5.8-32.6h5l-5.8,32.6H659.5z M676.4,184.2
	c1.1-6,3.4-10.5,7-13.4c2.7-2.3,6.2-3.6,10-3.6h0c0.2,0,0.4,0,0.6,0c3.5,0,6.7,1.7,8.6,4.4c2.1,3,2.7,7,1.7,12.2
	c-0.6,4.5-2.4,8.6-4.9,12c-0.7,1.1-3.7,3.5-7.3,4.7c0.5,0.1-2.1,0.8-4.9,0.8c-0.2,0-0.4,0-0.7,0c-3.5,0-6.7-1.7-8.6-4.4
	C676,193.9,675.4,189.7,676.4,184.2L676.4,184.2z M681.6,184.2c-0.7,4.2-0.5,7.3,0.8,9.4c1.1,1.9,3.1,3.1,5.4,3.1c0.1,0,0.2,0,0.3,0
	c2.7-0.1,5.2-1.3,6.8-3.2c2.4-2.8,4-6.6,4.2-10.6c0.6-3.3,0.3-5.9-1-8c-1.1-1.9-3.1-3.1-5.4-3.1c-0.1,0-0.2,0-0.2,0
	c-2.7,0-5.2,1.3-6.8,3.1c-2.4,2.8-4,6.4-4.2,10.4L681.6,184.2z M710.4,200.5l5.8-32.6h4.5l-0.8,4.6c2.3-3.3,6.1-5.4,10.4-5.4
	c0.1,0,0.1,0,0.2,0c1.7,0,3.2,0.4,4.6,1.1c1.4,0.7,2.6,1.9,3.1,3.4c0.3,0.5,0.6,1.9,0.6,3.3c0,0,0,0.1,0,0.1
	c-0.1,2.5-0.5,4.9-1.1,7.2l-3.1,18.2h-5l3.5-19.9c0.2-1.1,0.4-2.3,0.4-3.5c0-0.5,0-1.1-0.1-1.6c-0.2-1.1-0.9-2.1-1.8-2.7
	c-0.7-0.5-1.8-0.9-2.9-0.9c-0.1,0-0.1,0-0.2,0c-2.3,0-4.4,0.9-6,2.3c-1.8,1.5-3,4.3-3.8,8.5l-3.2,17.8L710.4,200.5z M743.2,213
	l8-45.1h4.5l-0.8,4.2c1.9-2.4,4.4-4.1,7.3-5.1c-1.6,0.5,0.2,0.1,2,0.1c0.1,0,0.1,0,0.2,0c0.1,0,0.2,0,0.3,0c2.3,0,4.4,0.8,6,2.2
	c1.9,1.7,3.2,4.1,3.4,6.7c0.2,0.6,0.3,2,0.3,3.6c0,1.5-0.1,3-0.4,4.4c-0.7,4.2-2.4,8.1-4.9,11.4c-0.3,0.9-3.3,3.5-6.8,5
	c0.7-0.1-1.8,0.7-4.4,0.8c0.1,0,0,0-0.1,0c-1.5,0-2.9-0.4-4.1-1.2c-1.5-1-2.7-2.5-3.3-4.3l-2.3,17.1L743.2,213z M752.9,184.4
	c-0.7,4.2-0.5,7.3,0.7,9.3c1,1.8,2.8,3,5,3c0,0,0.1,0,0.1,0c2.6-0.1,4.9-1.3,6.4-3.2c2.4-2.8,3.9-6.6,4.1-10.7
	c0.6-3,0.4-6.1-0.8-8.2c-0.9-1.9-2.8-3.1-5-3.1h0c-2.6,0.2-4.9,1.5-6.4,3.5c-2.3,2.8-3.9,6.6-4.2,10.7L752.9,184.4z M800.6,196.4
	c-3.1,2.6-9.7,4.8-11.8,4.8h0c-3.3,0-5.6-0.9-7.1-2.6c-1.1-1.3-1.7-3.1-1.7-4.9c0-0.6,0.1-1.3,0.2-1.8c0.3-2,1.2-3.8,2.5-5.3
	c0.6-1,2.4-2.5,4.6-3.4c-0.3-0.1,1.9-0.9,4.3-1.2c-0.1-0.1,2.7-0.5,5.5-0.6c1.4-0.3,5.8-1.4,9.8-3.1c-3.8,0.7-3.7,0.2-3.6-0.1
	c0.4-2.3,0.2-3.8-0.6-4.8c-1.2-1.2-2.9-1.9-4.7-1.9c-0.2,0-0.5,0-0.7,0c-0.1,0-0.3,0-0.6,0c-1.8,0-3.5,0.5-4.9,1.4
	c-1.9,1.6-3.2,3.8-3.7,6.3l-4.4-2.2c1.1-3.2,3-5.8,5.4-7.8c-0.5,0.3,1.9-1.1,4.6-1.6c0.2-0.3,2.5-0.7,4.9-0.7c0.1,0,0.2,0,0.2,0
	c0.2,0,0.4,0,0.6,0c1.9,0,3.8,0.4,5.5,1c1.4,0.6,2.6,1.7,3.3,3.2c0.2,0.3,0.5,1.6,0.5,2.9c0,0,0,0.1,0,0.1c-0.1,2.5-0.5,4.8-1.1,7.1
	l-0.9,5.4c-1,4.9-1.4,9.9-1.4,10c0,1.3,0.2,2.5,0.6,3.7l-5.3-0.1c-0.2-0.8-0.3-1.8-0.3-2.8c0-0.4,0-0.8,0.1-1.3L800.6,196.4z
	 M802.3,184.1c-3.6,1.4-7.8,2.2-12.2,2.4c1.3,0-0.8,0.6-2.7,1.6c0.6-0.2-0.4,0.7-1,1.8c-0.2,0.1-0.7,1.2-0.8,2.4c0-0.3,0,0,0,0.4
	c0,1,0.4,2,1,2.7c0.9,0.9,2.3,1.5,3.7,1.5c0.2,0,0.3,0,0.5,0c0,0,0,0,0,0c2,0,3.8-0.5,5.4-1.4c2.2-1.2,3.8-3.1,4.8-5.4
	c0.3-0.4,1-2.8,1.1-5.4L802.3,184.1L802.3,184.1z M813,213l0.4-5.2c0.9,0.3,1.9,0.5,3,0.5c-0.1,0-0.1,0,0,0c0.9,0,1.8-0.2,2.6-0.6
	c1.1-0.6,2-1.6,2.5-2.7c1.8-2.6,3.5-6.9,4.2-11.5c-2.4,8.1-2.2,7.7-1.9,7.1l-5.5-32.7h5.4l2.8,18.9c0.4,2.4,0.6,4.9,0.8,7.5
	c1-2.5,2.1-5,3.4-7.4l9.7-19h5L828.5,201c-5.2,10.3-7.8,11.7-10.4,12.8c1.3-0.6-0.2-0.1-1.8-0.1c0,0,0,0-0.1,0
	c-1.2,0-2.3-0.3-3.3-0.8L813,213z M813,213"/>
</svg>
